<?xml version="1.0" standalone="no"?>
<!DOCTYPE svg PUBLIC "-//W3C//DTD SVG 20010904//EN"
 "http://www.w3.org/TR/2001/REC-SVG-20010904/DTD/svg10.dtd">
<svg version="1.0" xmlns="http://www.w3.org/2000/svg"
 width="500.000000pt" height="500.000000pt" viewBox="0 0 500.000000 500.000000"
 preserveAspectRatio="xMidYMid meet">
<metadata>
Created by potrace 1.14, written by Peter Selinger 2001-2017
</metadata>
<g transform="translate(0.000000,500.000000) scale(0.100000,-0.100000)"
fill="#000000" stroke="none">
<path d="M1108 2818 l-3 -973 -23 -66 c-63 -188 -219 -281 -442 -265 -113 8
-244 32 -315 56 -32 11 -62 20 -67 20 -4 0 -8 -74 -8 -164 l0 -164 27 -11
c140 -57 407 -86 574 -62 347 50 549 262 598 624 7 51 11 414 11 1028 l0 949
-175 0 -174 0 -3 -972z"/>
<path d="M2110 2510 l0 -1280 170 0 170 0 0 977 0 977 478 -777 c341 -555 482
-777 495 -777 21 0 -20 -64 534 832 l438 707 3 -970 2 -969 173 2 172 3 3
1278 2 1277 -178 0 -178 0 -479 -776 c-263 -426 -481 -777 -485 -779 -4 -2
-221 346 -482 773 l-476 777 -181 3 -181 2 0 -1280z"/>
</g>
</svg>
