<?xml version="1.0" standalone="no"?>
<!DOCTYPE svg PUBLIC "-//W3C//DTD SVG 20010904//EN"
 "http://www.w3.org/TR/2001/REC-SVG-20010904/DTD/svg10.dtd">
<svg version="1.0" xmlns="http://www.w3.org/2000/svg"
 width="500.000000pt" height="500.000000pt" viewBox="0 0 500.000000 500.000000"
 preserveAspectRatio="xMidYMid meet">
<metadata>
Created by potrace 1.14, written by Peter Selinger 2001-2017
</metadata>
<g transform="translate(0.000000,500.000000) scale(0.100000,-0.100000)"
fill="#000000" stroke="none">
<path d="M1570 2758 c0 -749 -3 -785 -54 -872 -30 -51 -59 -78 -116 -108 -38
-19 -60 -23 -140 -23 -82 0 -103 4 -150 26 -77 36 -126 88 -145 151 -8 28 -15
58 -15 65 0 10 -26 13 -111 13 l-112 0 7 -62 c13 -135 120 -281 251 -343 156
-73 396 -72 544 2 81 41 153 112 194 191 68 128 67 116 67 925 l0 727 -110 0
-110 0 0 -692z"/>
<path d="M2250 2510 l0 -940 105 0 105 0 0 716 c0 568 3 715 13 712 6 -3 143
-324 304 -714 l291 -709 103 0 103 0 292 710 c161 390 297 711 303 713 8 3 11
-198 11 -712 l0 -716 105 0 105 0 0 940 0 941 -136 -3 -135 -3 -317 -775
c-191 -467 -322 -775 -330 -775 -8 0 -140 309 -331 775 l-317 775 -137 3 -137
3 0 -941z"/>
</g>
</svg>
